<?xml version="1.0" encoding="iso-8859-1"?>
<!-- Generator: Adobe Illustrator 18.0.0, SVG Export Plug-In . SVG Version: 6.00 Build 0)  -->
<!DOCTYPE svg PUBLIC "-//W3C//DTD SVG 1.1//EN" "http://www.w3.org/Graphics/SVG/1.1/DTD/svg11.dtd">
<svg version="1.1" id="Capa_1" xmlns="http://www.w3.org/2000/svg" xmlns:xlink="http://www.w3.org/1999/xlink" x="0px" y="0px"
	 viewBox="0 0 58.826 58.826" style="enable-background:new 0 0 58.826 58.826;" xml:space="preserve">
<g>
	<circle cx="24.413" cy="19" r="1"/>
	<circle cx="36.413" cy="21" r="1"/>
	<path d="M29.413,0c-12.682,0-23,10.318-23,23v34.047c0,0.404,0.244,0.769,0.617,0.924c0.373,0.154,0.803,0.069,1.09-0.217
		l4.34-4.34l5.119,5.119c0.391,0.391,1.023,0.391,1.414,0l5.119-5.119l5.094,5.094c0.391,0.391,1.023,0.391,1.414,0l5.094-5.094
		l5.119,5.119c0.195,0.195,0.451,0.293,0.707,0.293s0.512-0.098,0.707-0.293l5.119-5.119l3.34,3.34
		c0.286,0.285,0.715,0.371,1.09,0.217c0.374-0.155,0.617-0.52,0.617-0.924V23C52.413,10.318,42.095,0,29.413,0z M36.413,15
		c2.757,0,5,2.243,5,5s-2.243,5-5,5s-5-2.243-5-5S33.656,15,36.413,15z M23.413,15c2.757,0,5,2.243,5,5s-2.243,5-5,5s-5-2.243-5-5
		S20.656,15,23.413,15z M42.245,31.555l-4,6C38.059,37.833,37.747,38,37.413,38s-0.646-0.167-0.832-0.445l-3.168-4.752l-3.168,4.752
		c-0.371,0.557-1.293,0.557-1.664,0l-3.168-4.752l-3.168,4.752c-0.371,0.557-1.293,0.557-1.664,0l-4-6
		c-0.306-0.459-0.182-1.081,0.277-1.387c0.459-0.307,1.079-0.182,1.387,0.277l3.168,4.752l3.168-4.752
		c0.371-0.557,1.293-0.557,1.664,0l3.168,4.752l3.168-4.752c0.371-0.557,1.293-0.557,1.664,0l3.168,4.752l3.168-4.752
		c0.306-0.459,0.926-0.584,1.387-0.277C42.427,30.474,42.551,31.095,42.245,31.555z"/>
</g>
<g>
</g>
<g>
</g>
<g>
</g>
<g>
</g>
<g>
</g>
<g>
</g>
<g>
</g>
<g>
</g>
<g>
</g>
<g>
</g>
<g>
</g>
<g>
</g>
<g>
</g>
<g>
</g>
<g>
</g>
</svg>
