<?xml version="1.0" encoding="iso-8859-1"?>
<!-- Generator: Adobe Illustrator 19.0.0, SVG Export Plug-In . SVG Version: 6.00 Build 0)  -->
<svg version="1.1" id="Capa_1" xmlns="http://www.w3.org/2000/svg" xmlns:xlink="http://www.w3.org/1999/xlink" x="0px" y="0px"
	 viewBox="0 0 512.018 512.018" style="enable-background:new 0 0 512.018 512.018;" xml:space="preserve">
<g>
	<g>
		<path style="fill:#FFA800;" d="M239.385,110.943c0,0-26.615-54.4,0-102.4l59.282,17.067
			c-34.844,30.905-14.284,85.732-14.284,85.732l14.284,25.201l-42.67,17.067L239.385,110.943z"/>
		<path style="fill:#FFA800;" d="M503.467,307.21c0,100.096-69.358,182.443-158.102,192c-9.079,2.831-18.535,4.27-28.045,4.267
			c-8.212,0.003-16.388-1.087-24.311-3.243c-0.702,0.266-1.418,0.494-2.145,0.683c-11.619,3.413-23.974,3.413-35.593,0
			c-0.727-0.189-1.443-0.417-2.145-0.683c-7.924,2.155-16.1,3.246-24.311,3.243c-9.51,0.003-18.966-1.435-28.045-4.267
			c-88.744-9.557-158.102-91.904-158.102-192s69.358-182.443,158.102-192c9.079-2.832,18.535-4.27,28.045-4.267
			c8.959-0.02,17.873,1.274,26.456,3.84c11.312-5.12,24.281-5.12,35.593,0c8.584-2.566,17.497-3.86,26.457-3.84
			c9.51-0.004,18.966,1.435,28.045,4.267C434.109,124.767,503.467,207.114,503.467,307.21z"/>
	</g>
	<path style="fill:#FFFFFF;" d="M469.333,307.21c0,100.096-69.358,182.443-158.102,192c-9.079,2.831-18.535,4.27-28.045,4.267
		c-8.212,0.003-16.388-1.087-24.311-3.243c-0.702,0.266-1.418,0.494-2.145,0.683c-11.619,3.413-23.974,3.413-35.593,0
		c-0.727-0.189-1.443-0.417-2.145-0.683c-7.924,2.155-16.1,3.246-24.311,3.243c-9.51,0.003-18.966-1.435-28.045-4.267
		c-88.744-9.557-158.102-91.904-158.102-192s69.358-182.443,158.102-192c9.079-2.832,18.535-4.27,28.045-4.267
		c8.959-0.02,17.873,1.274,26.456,3.84c11.312-5.12,24.281-5.12,35.593,0c8.584-2.566,17.497-3.86,26.457-3.84
		c9.51-0.004,18.966,1.435,28.045,4.267C399.975,124.767,469.333,207.114,469.333,307.21z"/>
	<path style="fill:#FEDD0A;" d="M477.867,307.21c0,100.096-66.789,182.443-152.247,192c-8.723,2.828-17.836,4.268-27.006,4.267
		c-7.916,0.002-15.794-1.089-23.411-3.243c-0.675,0.266-1.365,0.494-2.066,0.683c-11.17,3.413-23.104,3.413-34.274,0
		c-0.701-0.189-1.39-0.417-2.066-0.683c-7.617,2.154-15.495,3.245-23.411,3.243c-9.17,0.001-18.283-1.438-27.006-4.267
		c-85.457-9.557-152.247-91.904-152.247-192s66.789-182.443,152.247-192c8.723-2.829,17.836-4.268,27.006-4.267
		c8.638-0.019,17.228,1.276,25.477,3.84c10.851-5.12,23.423-5.12,34.274,0c8.249-2.564,16.839-3.859,25.477-3.84
		c9.17-0.002,18.283,1.438,27.006,4.267C411.077,124.767,477.867,207.114,477.867,307.21z"/>
	<g>
		<path d="M78.592,230.414c-2.772-0.003-5.37-1.351-6.968-3.615c-1.598-2.264-1.999-5.164-1.073-7.777
			c20.2-56.908,59.617-98.779,105.433-112.012c20.629-5.949,42.498-6.102,63.208-0.442c3.506,0.988,5.999,4.092,6.208,7.729
			s-1.913,7.005-5.283,8.388c-1.633,0.651-3.223,1.406-4.758,2.263c-15.983,9.908-28.81,24.168-36.975,41.108
			c-1.434,2.637-2.8,5.354-4.075,8.154c-1.256,2.786-3.905,4.687-6.946,4.986c-3.041,0.298-6.009-1.052-7.782-3.54
			c-1.773-2.488-2.08-5.735-0.805-8.512c1.442-3.175,2.992-6.258,4.625-9.25c7.524-14.474,17.622-27.455,29.8-38.308
			c-10.961-0.509-21.931,0.782-32.475,3.821c-40.55,11.713-75.725,49.592-94.092,101.325
			C85.426,228.135,82.205,230.412,78.592,230.414z"/>
		<path d="M208.467,512.01c-10.993,0.002-21.932-1.548-32.492-4.604c-40.85-11.808-76.692-46.179-98.342-94.296
			c-1.261-2.782-0.938-6.027,0.846-8.506c1.784-2.48,4.757-3.817,7.796-3.506c3.039,0.311,5.68,2.222,6.925,5.012
			c19.583,43.537,51.483,74.483,87.517,84.904c16.873,4.876,34.735,5.203,51.775,0.946c4.563-1.136,9.186,1.632,10.338,6.191
			c1.152,4.559-1.6,9.191-6.155,10.359C227.452,510.833,217.978,512.009,208.467,512.01L208.467,512.01z"/>
		<path d="M433.408,230.414c-3.613-0.002-6.834-2.278-8.042-5.683C407,172.997,371.825,135.118,331.283,123.41
			c-10.539-3.05-21.508-4.342-32.467-3.825c12.167,10.858,22.259,23.837,29.783,38.304c1.567,2.871,3.047,5.821,4.442,8.85
			c1.865,3.349,1.269,7.531-1.458,10.225c-2.058,2.056-5.022,2.923-7.864,2.299c-2.842-0.624-5.17-2.653-6.178-5.382
			c-1.233-2.683-2.55-5.292-3.925-7.829c-8.133-16.881-20.895-31.102-36.8-41.008c-1.591-0.893-3.239-1.681-4.933-2.358
			c-3.37-1.383-5.492-4.751-5.283-8.388c0.209-3.637,2.702-6.741,6.208-7.729c20.713-5.665,42.586-5.51,63.217,0.446
			c45.808,13.229,85.225,55.1,105.425,112.009c0.925,2.613,0.525,5.512-1.073,7.777C438.778,229.063,436.18,230.411,433.408,230.414
			L433.408,230.414z"/>
		<path d="M303.533,512.01c-9.511-0.001-18.986-1.176-28.208-3.5c-4.555-1.168-7.307-5.8-6.155-10.359
			c1.152-4.559,5.775-7.327,10.338-6.191c17.037,4.257,34.897,3.931,51.767-0.946c36.042-10.421,67.942-41.367,87.525-84.904
			c1.245-2.79,3.886-4.701,6.925-5.012c3.039-0.311,6.012,1.026,7.796,3.506c1.784,2.48,2.107,5.724,0.846,8.506
			c-21.65,48.117-57.492,82.487-98.35,94.296C325.46,510.462,314.524,512.012,303.533,512.01L303.533,512.01z"/>
		<path d="M186.533,179.214c-2.899-0.007-5.597-1.485-7.165-3.924s-1.791-5.507-0.594-8.147c1.442-3.175,2.992-6.258,4.625-9.25
			c9.699-19.826,24.884-36.454,43.75-47.908c4.158-2.218,9.328-0.646,11.546,3.512c2.218,4.158,0.646,9.327-3.512,11.546
			c-15.906,9.906-28.669,24.13-36.801,41.013c-1.434,2.637-2.8,5.354-4.075,8.154C192.923,177.259,189.882,179.216,186.533,179.214
			L186.533,179.214z"/>
		<path d="M11.483,281.614c-0.494-0.001-0.988-0.043-1.475-0.125c-4.643-0.812-7.75-5.232-6.942-9.875
			C17.859,183.865,89.057,116.572,177.5,106.747c4.69-0.469,8.872,2.952,9.342,7.642c0.469,4.69-2.952,8.872-7.642,9.342
			c-80.832,9.041-145.861,70.601-159.317,150.817C19.17,278.629,15.628,281.61,11.483,281.614z"/>
		<path d="M178.358,507.714c-0.287,0-0.573-0.013-0.858-0.042C89.058,497.847,17.859,430.554,3.067,342.805
			c-0.799-4.639,2.308-9.049,6.945-9.857c4.637-0.809,9.053,2.289,9.872,6.924C33.339,420.088,98.368,481.647,179.2,490.689
			c4.527,0.449,7.906,4.37,7.681,8.913S182.907,507.714,178.358,507.714L178.358,507.714z"/>
		<path d="M8.533,315.743c-0.573-0.016-1.144-0.073-1.708-0.171c-0.533-0.095-1.05-0.268-1.533-0.512
			c-0.546-0.187-1.064-0.447-1.542-0.771c-0.425-0.338-0.85-0.679-1.275-1.021c-0.366-0.407-0.708-0.834-1.025-1.279
			c-0.325-0.475-0.582-0.992-0.767-1.538c-0.246-0.485-0.42-1.003-0.517-1.538C0.074,308.35,0.018,307.781,0,307.21
			c0.03-2.26,0.914-4.424,2.475-6.059c0.403-0.368,0.829-0.71,1.275-1.025c0.477-0.324,0.996-0.583,1.542-0.771
			c0.483-0.245,1-0.417,1.534-0.508c2.808-0.518,5.695,0.338,7.767,2.304c1.558,1.636,2.442,3.8,2.475,6.059
			c-0.017,0.572-0.076,1.141-0.175,1.704c-0.09,0.536-0.261,1.054-0.508,1.538c-0.188,0.544-0.445,1.061-0.767,1.538
			c-0.341,0.425-0.683,0.85-1.025,1.279C12.955,314.824,10.792,315.708,8.533,315.743z"/>
		<path d="M325.55,179.464c-2.264,0.003-4.435-0.897-6.033-2.5c-0.872-0.874-1.546-1.926-1.975-3.083
			c-1.233-2.683-2.55-5.292-3.925-7.829c-1.47-2.678-1.395-5.937,0.195-8.544s4.453-4.167,7.506-4.087
			c3.053,0.08,5.831,1.786,7.283,4.473c1.567,2.867,3.047,5.815,4.442,8.846c1.865,3.349,1.269,7.531-1.458,10.225
			C329.985,178.566,327.814,179.466,325.55,179.464z"/>
		<path d="M328.458,185.785c-3.384,0.002-6.451-1.995-7.817-5.092c-0.892-2.017-1.775-4.033-2.733-5.971
			c-0.135-0.267-0.255-0.541-0.358-0.821c-1.233-2.692-2.544-5.308-3.933-7.85c-8.133-16.881-20.895-31.102-36.8-41.008
			c-1.591-0.893-3.239-1.681-4.933-2.358c-10.157-4.261-21.599-4.264-31.758-0.009c-1.635,0.655-3.227,1.414-4.767,2.271
			c-15.983,9.908-28.81,24.168-36.975,41.108c-1.434,2.637-2.8,5.354-4.075,8.154c-1.256,2.786-3.905,4.687-6.946,4.986
			c-3.041,0.298-6.009-1.052-7.782-3.54s-2.08-5.735-0.805-8.512c1.442-3.175,2.992-6.258,4.625-9.25
			c9.699-19.827,24.884-36.454,43.75-47.908c18.017-9.952,39.891-9.915,57.875,0.096c18.789,11.452,33.91,28.041,43.575,47.808
			c1.567,2.871,3.047,5.821,4.442,8.85c0.204,0.378,0.382,0.769,0.533,1.171c0.925,1.925,1.808,3.908,2.683,5.892
			c1.164,2.639,0.918,5.686-0.656,8.103C334.03,184.321,331.343,185.781,328.458,185.785L328.458,185.785z"/>
		<path d="M256,512.01c-7.218,0.002-14.403-0.96-21.367-2.859c-2.116-0.583-4.242-1.229-6.467-2.063
			c-17.28-6.567-32.449-17.708-43.883-32.233l-0.258-0.333c-1.127-1.492-1.741-3.309-1.75-5.179
			c-0.001-3.671,2.346-6.93,5.828-8.093c3.481-1.163,7.317,0.031,9.522,2.964c9.486,12.071,22.065,21.346,36.4,26.842
			c1.85,0.692,3.475,1.188,5.108,1.629c11.045,2.997,22.688,2.999,33.733,0.004c1.633-0.446,3.258-0.942,4.966-1.583
			c14.453-5.517,27.13-14.869,36.667-27.05c2.982-3.65,8.359-4.191,12.008-1.208c3.65,2.982,4.191,8.359,1.208,12.008
			c-11.47,14.56-26.69,25.721-44.025,32.283c-2.083,0.783-4.208,1.429-6.325,2.013C270.403,511.05,263.218,512.011,256,512.01
			L256,512.01z"/>
		<path d="M186.533,179.214c-2.899-0.007-5.597-1.485-7.165-3.924s-1.791-5.507-0.594-8.147c1.442-3.175,2.992-6.258,4.625-9.25
			c1.444-2.701,4.226-4.421,7.288-4.505c3.062-0.084,5.934,1.48,7.525,4.097c1.591,2.618,1.656,5.888,0.17,8.566
			c-1.434,2.642-2.8,5.358-4.075,8.158C192.923,177.259,189.883,179.216,186.533,179.214L186.533,179.214z"/>
		<path d="M333.642,507.714c-4.549,0-8.298-3.569-8.523-8.112s3.154-8.464,7.681-8.913
			c93.269-10.206,163.483-89.663,162.133-183.479c1.349-93.816-68.864-173.274-162.133-183.479c-4.682-0.478-8.094-4.657-7.625-9.34
			c0.469-4.683,4.641-8.103,9.325-7.643C436.505,117.803,513.374,204.616,512,307.21c1.374,102.593-75.495,189.406-177.5,200.462
			C334.215,507.7,333.928,507.714,333.642,507.714z"/>
		<path d="M325.55,179.464c-3.575-0.002-6.77-2.23-8.008-5.583c-1.233-2.683-2.55-5.292-3.925-7.829
			c-8.133-16.881-20.895-31.102-36.8-41.008c-4.158-2.218-5.731-7.388-3.512-11.546c2.218-4.158,7.388-5.731,11.546-3.512
			c18.866,11.454,34.05,28.08,43.75,47.904c1.567,2.871,3.047,5.821,4.442,8.85c1.865,3.349,1.269,7.531-1.458,10.225
			C329.985,178.567,327.814,179.466,325.55,179.464z"/>
		<path d="M284.375,119.872c-3.554,0-6.736-2.205-7.983-5.533c-0.925-2.462-22.167-60.713,16.617-95.113
			c3.532-3.061,8.87-2.711,11.972,0.786s2.813,8.838-0.647,11.981c-29.967,26.579-12.142,75.875-11.958,76.367
			c0.975,2.62,0.605,5.552-0.991,7.847C289.789,118.502,287.171,119.871,284.375,119.872L284.375,119.872z"/>
		<path d="M239.383,119.472c-3.259,0.003-6.235-1.852-7.667-4.779c-1.167-2.383-28.242-58.988,0.2-110.288
			c1.928-3.478,6.004-5.163,9.825-4.062l59.283,17.067c2.93,0.843,5.187,3.184,5.922,6.142c0.735,2.958-0.164,6.084-2.358,8.2
			c-2.194,2.116-5.351,2.9-8.281,2.058l-52.483-15.108c-18.892,41.929,2.992,88.021,3.233,88.504
			c1.284,2.645,1.117,5.765-0.443,8.257C245.056,117.955,242.324,119.47,239.383,119.472L239.383,119.472z"/>
	</g>
	<g>
		<path style="fill:#FC7308;" d="M110.933,254.788L110.933,254.788l91.897,42.195c6.462,2.571,13.793,1.632,19.398-2.486
			c5.605-4.118,8.693-10.832,8.171-17.768v-32.912c0.533-11.547-8.366-21.354-19.911-21.941H140.8
			C123.483,222.757,110.134,237.467,110.933,254.788z"/>
		<path style="fill:#FC7308;" d="M401.067,254.788L401.067,254.788l-91.897,42.195c-6.462,2.571-13.793,1.632-19.398-2.486
			c-5.605-4.118-8.693-10.833-8.171-17.768v-32.912c-0.533-11.547,8.366-21.354,19.911-21.941H371.2
			C388.517,222.757,401.866,237.467,401.067,254.788L401.067,254.788z"/>
	</g>
	<g>
		<path d="M210.542,307.247c-3.893-0.01-7.737-0.866-11.267-2.508l-91.9-42.196c-3.031-1.39-4.975-4.419-4.975-7.754
			c-0.784-22.028,16.377-40.549,38.4-41.446h69.692c16.253,0.598,28.965,14.22,28.442,30.475v32.912
			c0.166,10.513-5.056,20.382-13.842,26.158C220.763,305.713,215.71,307.227,210.542,307.247z M119.967,249.547l86.425,39.683
			c3.069,1.448,6.672,1.179,9.492-0.708c3.877-2.651,6.134-7.097,5.983-11.792v-32.912c0.506-6.826-4.558-12.795-11.375-13.408
			H140.8C130.17,230.979,121.435,239.003,119.967,249.547z"/>
		<path d="M301.458,307.247c-5.169-0.02-10.221-1.534-14.55-4.358c-8.786-5.777-14.008-15.645-13.842-26.158v-32.912
			c-0.523-16.255,12.189-29.877,28.442-30.475H371.2c22.023,0.896,39.184,19.418,38.4,41.446c0,3.335-1.944,6.364-4.975,7.754
			l-91.9,42.196C309.195,306.379,305.351,307.235,301.458,307.247L301.458,307.247z M301.508,230.41
			c-6.817,0.613-11.881,6.582-11.375,13.408v32.912c-0.15,4.694,2.106,9.141,5.983,11.792c2.82,1.887,6.423,2.156,9.492,0.708
			l86.425-39.683c-1.468-10.544-10.203-18.568-20.833-19.137H301.508z"/>
	</g>
	<path style="fill:#FC7308;" d="M426.667,318.132c0,64.683-76.373,117.077-170.667,117.077c-4.352,0-8.619-0.085-12.8-0.341
		c-88.32-4.523-157.867-55.04-157.867-116.736c0.029-11.09,2.293-22.06,6.656-32.256c10.212,11.676,23.261,20.522,37.888,25.685
		l11.947,27.819l11.776,27.563l23.467-46.933l27.733,55.467l21.845-43.691c2.56,0.256,5.12,0.341,7.68,0.427l8.875,24.661
		l12.8,35.669l14.251-39.765l7.424-20.565c2.56-0.085,5.12-0.171,7.68-0.427l21.845,43.691l27.733-55.467l9.643,19.371
		l13.824,27.563l23.723-55.381c6.025-2.461,11.871-5.34,17.493-8.619c7.849-4.301,14.778-10.099,20.395-17.067
		C424.387,296.068,426.651,307.041,426.667,318.132z"/>
	<path d="M256,443.743c-98.808,0-179.2-56.333-179.2-125.579c0.011-12.25,2.508-24.369,7.342-35.625
		c1.191-2.806,3.788-4.763,6.814-5.134c3.025-0.371,6.019,0.9,7.853,3.334c9.304,10.435,21.115,18.327,34.317,22.929
		c2.066,0.85,3.716,2.478,4.592,4.533l16.483,38.467l15.233-30.475c1.603-2.69,4.502-4.337,7.633-4.337
		c3.131,0,6.031,1.648,7.633,4.337l20.1,40.2l14.208-28.425c1.567-3.188,4.96-5.055,8.492-4.675
		c2.317,0.233,4.625,0.308,6.942,0.388c3.537,0.113,6.66,2.342,7.917,5.65L256,367.305l13.642-37.975
		c1.182-3.289,4.249-5.526,7.742-5.646c2.492-0.083,4.8-0.158,7.117-0.392c3.53-0.373,6.919,1.493,8.492,4.675l14.208,28.425
		l20.1-40.2c1.603-2.69,4.502-4.337,7.633-4.337s6.031,1.648,7.633,4.337l15.233,30.475l16.483-38.467
		c0.876-2.055,2.525-3.684,4.592-4.533c13.202-4.602,25.012-12.494,34.317-22.929c1.822-2.453,4.828-3.728,7.858-3.333
		c3.024,0.372,5.619,2.329,6.808,5.133c4.833,11.256,7.331,23.376,7.342,35.625C435.2,387.41,354.808,443.743,256,443.743z
		 M95.725,301.835c-1.234,5.355-1.857,10.833-1.858,16.329c0,59.833,72.733,108.513,162.133,108.513s162.133-48.679,162.133-108.513
		c-0.001-5.496-0.624-10.974-1.858-16.329c-8.432,6.655-17.738,12.12-27.659,16.242l-22.375,52.225
		c-1.305,3.057-4.269,5.076-7.592,5.171c-3.341,0.174-6.455-1.688-7.883-4.713l-15.833-31.671l-20.1,40.204
		c-1.446,2.89-4.401,4.716-7.633,4.717l0,0c-3.232,0-6.187-1.826-7.633-4.717l-17.3-34.612l-18.233,50.746
		c-1.218,3.389-4.432,5.65-8.033,5.65s-6.816-2.261-8.033-5.65l-18.233-50.746l-17.3,34.612c-1.603,2.69-4.502,4.337-7.633,4.337
		c-3.131,0-6.031-1.648-7.633-4.337l-20.1-40.204l-15.833,31.671c-1.446,3.008-4.549,4.863-7.883,4.713
		c-3.323-0.095-6.287-2.114-7.592-5.171l-22.375-52.225C113.463,313.955,104.157,308.49,95.725,301.835z"/>
</g>
<g>
</g>
<g>
</g>
<g>
</g>
<g>
</g>
<g>
</g>
<g>
</g>
<g>
</g>
<g>
</g>
<g>
</g>
<g>
</g>
<g>
</g>
<g>
</g>
<g>
</g>
<g>
</g>
<g>
</g>
</svg>
