<?xml version="1.0" encoding="iso-8859-1"?>
<!-- Generator: Adobe Illustrator 18.1.1, SVG Export Plug-In . SVG Version: 6.00 Build 0)  -->
<svg version="1.1" id="Capa_1" xmlns="http://www.w3.org/2000/svg" xmlns:xlink="http://www.w3.org/1999/xlink" x="0px" y="0px"
	 viewBox="0 0 288 288" style="enable-background:new 0 0 288 288;" xml:space="preserve">
<g>
	<g>
		<path style="fill:#030104;" d="M203.381,135.555c-18.256,24.01-41.926,22.997-41.926,22.997c3.714-6.77,0-30.77,0-30.77
			c-3.387,3.041-7.775,12.848-7.775,12.848c-4.73-4.052-9.11-4.393-11.16-4.393c-2.047,0-6.425,0.345-11.156,4.393
			c0,0-4.39-9.809-7.772-12.848c0,0-3.717,24,0,30.77c0,0-23.669,1.014-41.925-22.997c0,0-49.901,20.624-41.136,76.729
			c0.073,0.455,0.148,0.913,0.23,1.367c0,0,6.078-19.945,15.549-18.254c9.47,1.688,14.877,21.302,14.877,27.729
			c0,0,14.295-13.188,19.827-10.143c5.53,3.041,10.264,25.691,10.264,25.691s8.792-18.936,18.594-15.893
			c9.807,3.049,22.647,31.447,22.647,31.447s12.847-28.398,22.652-31.447c9.809-3.041,18.591,15.893,18.591,15.893
			s4.736-22.65,10.268-25.691c5.532-3.046,19.827,10.143,19.827,10.143c0-6.426,5.413-26.039,14.877-27.729
			c9.471-1.69,15.555,18.254,15.555,18.254c0.08-0.459,0.152-0.917,0.225-1.367C253.283,156.179,203.381,135.555,203.381,135.555z"
			/>
		<path style="fill:#030104;" d="M287.825,67.08c-7.445-32.858-39.478-33.309-39.478-33.309
			c-4.812,17.237-18.086,21.859-18.086,21.859c0.566-4.546-6.735-16.968-6.735-16.968c-1.202,2.418-1.477,8.786-1.477,8.786
			c-3.495-1.199-5.984-0.427-7.114,0.021c-1.13,0.448-3.469,1.597-5.19,4.864c0,0-4.568-4.448-7.099-5.383
			c0,0,3.203,14.048,6.734,16.967c0,0-12.83,5.74-28.152-3.504c0,0-23.003,22.295-5.889,51.315c0.139,0.235,0.281,0.471,0.426,0.704
			c0,0-1.014-12.328,4.58-13.469c5.591-1.142,12.865,8.49,14.271,12.034c0,0,4.996-10.402,8.715-9.933
			c3.715,0.467,11.283,11.921,11.283,11.921s0.703-12.367,6.774-12.835c6.075-0.464,19.372,12.385,19.372,12.385
			s0.868-18.473,5.608-22.301c4.743-3.824,13.729,4.695,13.729,4.695s-2.346-13.527,0.039-16.415
			c2.384-2.89,13.154,1.253,13.154,1.253c-1.406-3.543-2.715-15.543,2.135-18.547C280.279,58.216,288,67.883,288,67.883
			C287.945,67.613,287.883,67.345,287.825,67.08z"/>
		<path style="fill:#030104;" d="M47.238,112.536c0,0,13.297-12.849,19.372-12.385c6.071,0.468,6.775,12.835,6.775,12.835
			s7.567-11.454,11.283-11.921c3.718-0.469,8.714,9.933,8.714,9.933c1.407-3.544,8.681-13.176,14.272-12.034
			c5.594,1.141,4.579,13.469,4.579,13.469c0.145-0.232,0.287-0.469,0.426-0.704c17.114-29.02-5.889-51.315-5.889-51.315
			c-15.322,9.244-28.153,3.504-28.153,3.504c3.532-2.919,6.735-16.967,6.735-16.967c-2.53,0.935-7.099,5.383-7.099,5.383
			c-1.722-3.267-4.061-4.416-5.189-4.864c-1.13-0.449-3.62-1.22-7.115-0.021c0,0-0.274-6.368-1.476-8.786
			c0,0-7.302,12.422-6.736,16.968c0,0-13.273-4.622-18.085-21.859c0,0-32.033,0.45-39.479,33.309
			C0.117,67.345,0.056,67.613,0,67.883c0,0,7.721-9.667,12.573-6.662c4.85,3.004,3.541,15.004,2.134,18.547
			c0,0,10.771-4.143,13.154-1.253C30.246,81.403,27.9,94.93,27.9,94.93s8.987-8.52,13.73-4.695
			C46.37,94.063,47.238,112.536,47.238,112.536z"/>
	</g>
</g>
<g>
</g>
<g>
</g>
<g>
</g>
<g>
</g>
<g>
</g>
<g>
</g>
<g>
</g>
<g>
</g>
<g>
</g>
<g>
</g>
<g>
</g>
<g>
</g>
<g>
</g>
<g>
</g>
<g>
</g>
</svg>
